<?xml version="1.0" encoding="UTF-8"?>
<!DOCTYPE svg PUBLIC "-//W3C//DTD SVG 1.1//EN" "http://www.w3.org/Graphics/SVG/1.1/DTD/svg11.dtd">
<svg xmlns="http://www.w3.org/2000/svg" version="1.1" width="214px" height="214px" style="shape-rendering:geometricPrecision; text-rendering:geometricPrecision; image-rendering:optimizeQuality; fill-rule:evenodd; clip-rule:evenodd" xmlns:xlink="http://www.w3.org/1999/xlink">
<g><path style="opacity:1" fill="#fefefe" d="M -0.5,-0.5 C 70.8333,-0.5 142.167,-0.5 213.5,-0.5C 213.5,70.8333 213.5,142.167 213.5,213.5C 142.167,213.5 70.8333,213.5 -0.5,213.5C -0.5,142.167 -0.5,70.8333 -0.5,-0.5 Z"/></g>
<g><path style="opacity:1" fill="#f8c16a" d="M 113.5,74.5 C 109.629,74.185 105.962,74.5184 102.5,75.5C 101.957,75.44 101.624,75.1067 101.5,74.5C 105.649,73.1905 109.649,73.1905 113.5,74.5 Z"/></g>
<g><path style="opacity:1" fill="#f7d695" d="M 159.5,74.5 C 164.316,73.3503 169.316,73.1837 174.5,74C 173.956,74.7172 173.289,75.2172 172.5,75.5C 168.366,74.5151 164.032,74.1818 159.5,74.5 Z"/></g>
<g><path style="opacity:1" fill="#fd980d" d="M 121.5,73.5 C 125.167,73.5 128.833,73.5 132.5,73.5C 130.064,79.1259 126.564,84.1259 122,88.5C 120.991,90.0249 120.491,91.6916 120.5,93.5C 118.167,93.5 115.833,93.5 113.5,93.5C 115.035,86.4224 117.702,79.7558 121.5,73.5 Z"/></g>
<g><path style="opacity:1" fill="#fc9a0c" d="M 129.5,93.5 C 127.167,93.5 124.833,93.5 122.5,93.5C 123.045,91.4068 123.878,89.4068 125,87.5C 130.167,83 135.333,78.5 140.5,74C 144.833,73.3333 149.167,73.3333 153.5,74C 147.167,78.3333 140.833,82.6667 134.5,87C 132.174,88.8049 130.508,90.9716 129.5,93.5 Z"/></g>
<g><path style="opacity:1" fill="#fb9506" d="M 92.5,93.5 C 90.1667,93.5 87.8333,93.5 85.5,93.5C 85.2488,91.8297 84.5822,90.3297 83.5,89C 76.8333,84.3333 70.1667,79.6667 63.5,75C 68.2867,74.1215 72.9534,74.4548 77.5,76C 81.0338,79.8689 84.8672,83.3689 89,86.5C 90.1799,88.8599 91.3466,91.1932 92.5,93.5 Z"/></g>
<g><path style="opacity:1" fill="#fc9611" d="M 101.5,93.5 C 99.1667,93.5 96.8333,93.5 94.5,93.5C 94.6567,92.1266 94.49,90.7932 94,89.5C 89.1078,84.7982 85.2745,79.4649 82.5,73.5C 86.5546,73.1758 90.5546,73.5091 94.5,74.5C 98.2783,80.3735 100.612,86.7068 101.5,93.5 Z"/></g>
<g><path style="opacity:1" fill="#fd970f" d="M 113.5,74.5 C 112.585,80.9814 111.585,87.3147 110.5,93.5C 108.5,93.5 106.5,93.5 104.5,93.5C 103.511,87.6781 102.844,81.6781 102.5,75.5C 105.962,74.5184 109.629,74.185 113.5,74.5 Z"/></g>
<g><path style="opacity:1" fill="#fb9a09" d="M 82.5,93.5 C 80.1667,93.5 77.8333,93.5 75.5,93.5C 75.67,92.1779 75.3366,91.0113 74.5,90C 64.5,85 54.5,80 44.5,75C 49.1667,74.3333 53.8333,74.3333 58.5,75C 66.8753,79.3809 74.7087,84.5476 82,90.5C 82.4828,91.448 82.6495,92.448 82.5,93.5 Z"/></g>
<g><path style="opacity:1" fill="#f79509" d="M 159.5,74.5 C 164.032,74.1818 168.366,74.5151 172.5,75.5C 161.948,79.7751 151.614,84.6085 141.5,90C 140.177,90.8159 139.511,91.9826 139.5,93.5C 137.5,93.5 135.5,93.5 133.5,93.5C 134.441,91.2279 135.774,89.2279 137.5,87.5C 144.138,82.1737 151.471,77.8404 159.5,74.5 Z"/></g>
<g><path style="opacity:1" fill="#fce44d" d="M 137.5,87.5 C 135.774,89.2279 134.441,91.2279 133.5,93.5C 132.833,93.5 132.5,93.1667 132.5,92.5C 133.167,89.8333 134.833,88.1667 137.5,87.5 Z"/></g>
<g><path style="opacity:1" fill="#806e78" d="M 94.5,94.5 C 94.5,94.1667 94.5,93.8333 94.5,93.5C 96.8333,93.5 99.1667,93.5 101.5,93.5C 102.833,94.5 102.833,95.5 101.5,96.5C 99.7211,94.6565 97.3878,93.9898 94.5,94.5 Z"/></g>
<g><path style="opacity:1" fill="#816c72" d="M 132.5,92.5 C 132.5,93.1667 132.833,93.5 133.5,93.5C 135.5,93.5 137.5,93.5 139.5,93.5C 139.5,93.8333 139.5,94.1667 139.5,94.5C 136.612,93.9898 134.279,94.6565 132.5,96.5C 131.167,95.1667 131.167,93.8333 132.5,92.5 Z"/></g>
<g><path style="opacity:1" fill="#426fbb" d="M 122.5,93.5 C 124.833,93.5 127.167,93.5 129.5,93.5C 130.038,95.1172 130.371,96.7839 130.5,98.5C 129.358,96.0283 127.358,95.0283 124.5,95.5C 125.382,98.385 126.716,101.052 128.5,103.5C 128.167,103.5 127.833,103.5 127.5,103.5C 123.723,101.279 122.056,97.9458 122.5,93.5 Z"/></g>
<g><path style="opacity:1" fill="#1c82dd" d="M 94.5,94.5 C 97.3878,93.9898 99.7211,94.6565 101.5,96.5C 99.7755,102.321 97.4422,107.988 94.5,113.5C 90.2047,114.661 85.8713,114.828 81.5,114C 85.3333,109.5 89.1667,105 93,100.5C 94.128,98.6547 94.628,96.6547 94.5,94.5 Z"/></g>
<g><path style="opacity:1" fill="#95cefc" d="M 142.5,99.5 C 144.253,101.223 146.253,102.723 148.5,104C 147.944,104.383 147.611,104.883 147.5,105.5C 144.833,104.5 142.167,103.5 139.5,102.5C 137.533,100.507 135.533,98.5066 133.5,96.5C 134.333,96.1667 135.167,95.8333 136,95.5C 138.038,97.037 140.205,98.3703 142.5,99.5 Z"/></g>
<g><path style="opacity:1" fill="#4a97df" d="M 139.5,94.5 C 140.075,96.4113 141.075,98.078 142.5,99.5C 140.205,98.3703 138.038,97.037 136,95.5C 135.167,95.8333 134.333,96.1667 133.5,96.5C 135.533,98.5066 137.533,100.507 139.5,102.5C 135.911,101.908 133.578,99.9078 132.5,96.5C 134.279,94.6565 136.612,93.9898 139.5,94.5 Z"/></g>
<g><path style="opacity:1" fill="#2690ec" d="M 132.5,113.5 C 128.774,113.823 125.107,113.489 121.5,112.5C 121.068,109.819 119.734,107.819 117.5,106.5C 114.494,103.133 113.16,99.1333 113.5,94.5C 115.833,94.5 118.167,94.5 120.5,94.5C 120.372,96.6547 120.872,98.6547 122,100.5C 125.713,104.708 129.213,109.041 132.5,113.5 Z"/></g>
<g><path style="opacity:1" fill="#3767aa" d="M 85.5,93.5 C 87.8333,93.5 90.1667,93.5 92.5,93.5C 92.0446,97.7417 90.0446,101.075 86.5,103.5C 86.1667,103.5 85.8333,103.5 85.5,103.5C 87.6133,100.784 89.6133,97.9502 91.5,95C 88.8018,94.185 86.4685,94.685 84.5,96.5C 84.2627,95.209 84.596,94.209 85.5,93.5 Z"/></g>
<g><path style="opacity:1" fill="#60b5f5" d="M 75.5,93.5 C 77.8333,93.5 80.1667,93.5 82.5,93.5C 82.9754,96.3126 81.9754,98.3126 79.5,99.5C 72.1937,103.488 64.8604,107.488 57.5,111.5C 55.4727,111.662 53.4727,111.495 51.5,111C 57.7122,107.727 64.0456,104.727 70.5,102C 72.0931,101.051 73.4264,99.8846 74.5,98.5C 75.3007,96.9582 75.634,95.2915 75.5,93.5 Z"/></g>
<g><path style="opacity:1" fill="#3a9df4" d="M 85.5,103.5 C 82.333,106.498 78.9997,109.331 75.5,112C 72.1832,112.498 68.8499,112.665 65.5,112.5C 67.1939,110.139 69.1939,108.139 71.5,106.5C 74.3075,105.121 76.9741,103.454 79.5,101.5C 81.5486,100.118 83.2153,98.4516 84.5,96.5C 86.4685,94.685 88.8018,94.185 91.5,95C 89.6133,97.9502 87.6133,100.784 85.5,103.5 Z"/></g>
<g><path style="opacity:1" fill="#2881db" d="M 104.5,93.5 C 106.5,93.5 108.5,93.5 110.5,93.5C 111.884,100.385 112.55,107.385 112.5,114.5C 108.818,114.665 105.152,114.499 101.5,114C 102.467,107.162 103.467,100.328 104.5,93.5 Z"/></g>
<g><path style="opacity:1" fill="#4eaaf4" d="M 130.5,98.5 C 137.362,103.758 144.362,108.758 151.5,113.5C 147.818,113.665 144.152,113.499 140.5,113C 136.985,109.093 132.985,105.927 128.5,103.5C 126.716,101.052 125.382,98.385 124.5,95.5C 127.358,95.0283 129.358,96.0283 130.5,98.5 Z"/></g>
<g><path style="opacity:1" fill="#1d3b68" d="M 79.5,99.5 C 79.5,100.167 79.5,100.833 79.5,101.5C 76.9741,103.454 74.3075,105.121 71.5,106.5C 67.1887,108.656 62.8553,110.822 58.5,113C 53.0815,113.818 49.0815,113.652 46.5,112.5C 50.3714,112.815 54.0381,112.482 57.5,111.5C 64.8604,107.488 72.1937,103.488 79.5,99.5 Z"/></g>
<g><path style="opacity:1" fill="#172f5b" d="M 127.5,103.5 C 127.833,103.5 128.167,103.5 128.5,103.5C 132.985,105.927 136.985,109.093 140.5,113C 144.152,113.499 147.818,113.665 151.5,113.5C 148.919,114.652 144.919,114.818 139.5,114C 135.307,110.635 131.307,107.135 127.5,103.5 Z"/></g>
<g><path style="opacity:1" fill="#2a66a6" d="M 139.5,102.5 C 142.167,103.5 144.833,104.5 147.5,105.5C 152.815,110.484 159.148,112.65 166.5,112C 163.641,110.74 160.974,109.24 158.5,107.5C 163.701,109.098 168.701,111.265 173.5,114C 168.167,114.667 162.833,114.667 157.5,114C 151.078,110.729 145.078,106.896 139.5,102.5 Z"/></g>
<g><path style="opacity:1" fill="#2381df" d="M 74.5,98.5 C 73.4264,99.8846 72.0931,101.051 70.5,102C 64.0456,104.727 57.7122,107.727 51.5,111C 53.4727,111.495 55.4727,111.662 57.5,111.5C 54.0381,112.482 50.3714,112.815 46.5,112.5C 55.5468,107.31 64.8802,102.643 74.5,98.5 Z"/></g>
<g><path style="opacity:1" fill="#6eb7f5" d="M 142.5,99.5 C 147.965,101.983 153.298,104.65 158.5,107.5C 160.974,109.24 163.641,110.74 166.5,112C 159.148,112.65 152.815,110.484 147.5,105.5C 147.611,104.883 147.944,104.383 148.5,104C 146.253,102.723 144.253,101.223 142.5,99.5 Z"/></g>
<g><path style="opacity:1" fill="#11274e" d="M 85.5,103.5 C 85.8333,103.5 86.1667,103.5 86.5,103.5C 83.6675,107.165 80.3341,110.332 76.5,113C 72.0622,113.808 68.3956,113.641 65.5,112.5C 68.8499,112.665 72.1832,112.498 75.5,112C 78.9997,109.331 82.333,106.498 85.5,103.5 Z"/></g>
<g><path style="opacity:1" fill="#062951" d="M 117.5,106.5 C 119.734,107.819 121.068,109.819 121.5,112.5C 125.107,113.489 128.774,113.823 132.5,113.5C 129.234,114.784 125.234,114.784 120.5,113.5C 119.212,111.261 118.212,108.928 117.5,106.5 Z"/></g>
<g><path style="opacity:1" fill="#1580e0" d="M 174.5,118.5 C 175.263,119.268 176.263,119.768 177.5,120C 170.208,121.116 162.874,121.616 155.5,121.5C 155.183,124.572 155.516,127.572 156.5,130.5C 157.107,130.376 157.44,130.043 157.5,129.5C 163.093,129.193 168.593,129.527 174,130.5C 174.692,129.975 175.192,129.308 175.5,128.5C 174.754,127.264 174.421,125.93 174.5,124.5C 175.96,126.335 177.293,128.335 178.5,130.5C 179.321,127.553 179.821,124.553 180,121.5C 180.374,122.416 180.874,123.25 181.5,124C 180.833,126.667 180.167,129.333 179.5,132C 176.874,132.995 174.207,133.328 171.5,133C 174.937,132.351 175.104,131.851 172,131.5C 166.413,131.707 161.246,132.707 156.5,134.5C 156.22,137.272 156.887,139.772 158.5,142C 155.518,142.498 152.518,142.665 149.5,142.5C 148.614,135.543 148.28,128.543 148.5,121.5C 148.217,120.711 147.717,120.044 147,119.5C 146.878,121.437 146.045,122.77 144.5,123.5C 144.389,122.883 144.056,122.383 143.5,122C 135.841,121.5 128.174,121.334 120.5,121.5C 120.198,124.059 120.532,126.393 121.5,128.5C 125.383,128.891 129.05,128.224 132.5,126.5C 133.833,129.167 133.833,131.833 132.5,134.5C 131.893,134.376 131.56,134.043 131.5,133.5C 131.082,132.778 130.416,132.278 129.5,132C 126.518,131.502 123.518,131.335 120.5,131.5C 120.808,133.924 120.474,136.257 119.5,138.5C 118.604,135.856 117.771,133.19 117,130.5C 116.667,133.167 116.333,135.833 116,138.5C 115.193,132.584 115.359,126.75 116.5,121C 115.552,120.517 114.552,120.351 113.5,120.5C 110.322,119.295 106.988,119.295 103.5,120.5C 101.146,122.188 99.1455,124.188 97.5,126.5C 98.1723,123.658 99.5056,121.158 101.5,119C 125.831,118.5 150.164,118.333 174.5,118.5 Z"/></g>
<g><path style="opacity:1" fill="#177dda" d="M 58.5,118.5 C 58.4809,120.06 58.1476,121.56 57.5,123C 58.4138,124.406 59.0805,125.906 59.5,127.5C 58.2209,128.968 56.5542,129.635 54.5,129.5C 54.9683,126.1 53.6349,123.767 50.5,122.5C 49.2393,124.453 48.0726,126.453 47,128.5C 46.51,129.793 46.3433,131.127 46.5,132.5C 48.9878,134.388 51.9878,135.055 55.5,134.5C 56.6266,135.122 57.6266,135.955 58.5,137C 52.8333,137.667 47.1667,137.667 41.5,137C 40.7069,135.915 40.0402,134.748 39.5,133.5C 40.9459,131.382 41.6126,129.049 41.5,126.5C 42.3705,123.888 43.0372,121.221 43.5,118.5C 48.5,118.5 53.5,118.5 58.5,118.5 Z"/></g>
<g><path style="opacity:1" fill="#0d7ddb" d="M 79.5,118.5 C 82.2946,124.752 85.628,130.752 89.5,136.5C 87.6104,139.002 85.6104,139.002 83.5,136.5C 82.7368,134.632 81.7368,132.965 80.5,131.5C 80.2172,130.711 79.7172,130.044 79,129.5C 78.7618,133.222 78.2618,136.889 77.5,140.5C 77.7093,141.086 78.0426,141.586 78.5,142C 75.5184,142.498 72.5184,142.665 69.5,142.5C 69.5569,141.391 69.8902,140.391 70.5,139.5C 70.6662,133.491 70.4995,127.491 70,121.5C 69.3076,120.975 68.8076,120.308 68.5,119.5C 72.1073,118.511 75.774,118.177 79.5,118.5 Z"/></g>
<g><path style="opacity:1" fill="#f9f9f8" d="M 113.5,120.5 C 113.5,127.167 113.5,133.833 113.5,140.5C 111.544,134.588 110.877,128.255 111.5,121.5C 111.842,120.662 112.508,120.328 113.5,120.5 Z"/></g>
<g><path style="opacity:1" fill="#315081" d="M 144.5,123.5 C 136.833,123.5 129.167,123.5 121.5,123.5C 121.5,125.167 121.5,126.833 121.5,128.5C 120.532,126.393 120.198,124.059 120.5,121.5C 128.174,121.334 135.841,121.5 143.5,122C 144.056,122.383 144.389,122.883 144.5,123.5 Z"/></g>
<g><path style="opacity:1" fill="#0e6dc5" d="M 113.5,120.5 C 112.508,120.328 111.842,120.662 111.5,121.5C 110.173,128.235 110.173,135.068 111.5,142C 107.973,142.808 104.64,142.641 101.5,141.5C 102.338,141.158 102.672,140.492 102.5,139.5C 103.806,136.313 103.806,132.98 102.5,129.5C 101.893,129.624 101.56,129.957 101.5,130.5C 99.5283,134.15 97.5283,137.816 95.5,141.5C 89.4231,144.098 85.4231,142.431 83.5,136.5C 85.6104,139.002 87.6104,139.002 89.5,136.5C 90.5,136.167 91.1667,135.5 91.5,134.5C 93.1153,131.55 95.1153,128.884 97.5,126.5C 99.1455,124.188 101.146,122.188 103.5,120.5C 106.988,119.295 110.322,119.295 113.5,120.5 Z"/></g>
<g><path style="opacity:1" fill="#4a5b73" d="M 148.5,121.5 C 147.839,122.718 147.172,124.051 146.5,125.5C 145.478,125.145 144.811,124.478 144.5,123.5C 146.045,122.77 146.878,121.437 147,119.5C 147.717,120.044 148.217,120.711 148.5,121.5 Z"/></g>
<g><path style="opacity:1" fill="#7db1dd" d="M 79.5,118.5 C 83.5,123.833 87.5,129.167 91.5,134.5C 91.1667,135.5 90.5,136.167 89.5,136.5C 85.628,130.752 82.2946,124.752 79.5,118.5 Z"/></g>
<g><path style="opacity:1" fill="#b7bec3" d="M 58.5,118.5 C 61.1625,124.849 64.3291,131.515 68,138.5C 68.6708,139.252 69.5041,139.586 70.5,139.5C 69.8902,140.391 69.5569,141.391 69.5,142.5C 68.8333,142.5 68.1667,142.5 67.5,142.5C 64.5456,137.588 61.879,132.588 59.5,127.5C 59.0805,125.906 58.4138,124.406 57.5,123C 58.1476,121.56 58.4809,120.06 58.5,118.5 Z"/></g>
<g><path style="opacity:1" fill="#1367ba" d="M 59.5,127.5 C 61.879,132.588 64.5456,137.588 67.5,142.5C 65.1667,142.5 62.8333,142.5 60.5,142.5C 59.596,141.791 59.2627,140.791 59.5,139.5C 54.1563,139.334 48.8229,139.501 43.5,140C 42.9341,140.995 42.2674,141.828 41.5,142.5C 38.2869,142.81 35.2869,142.477 32.5,141.5C 35.7383,136.698 38.7383,131.698 41.5,126.5C 41.6126,129.049 40.9459,131.382 39.5,133.5C 40.0402,134.748 40.7069,135.915 41.5,137C 47.1667,137.667 52.8333,137.667 58.5,137C 57.6266,135.955 56.6266,135.122 55.5,134.5C 54.4484,131.395 53.1151,128.395 51.5,125.5C 49.5784,127.687 47.9117,130.02 46.5,132.5C 46.3433,131.127 46.51,129.793 47,128.5C 48.0726,126.453 49.2393,124.453 50.5,122.5C 53.6349,123.767 54.9683,126.1 54.5,129.5C 56.5542,129.635 58.2209,128.968 59.5,127.5 Z"/></g>
<g><path style="opacity:1" fill="#f0f0f0" d="M 55.5,134.5 C 51.9878,135.055 48.9878,134.388 46.5,132.5C 47.9117,130.02 49.5784,127.687 51.5,125.5C 53.1151,128.395 54.4484,131.395 55.5,134.5 Z"/></g>
<g><path style="opacity:1" fill="#1a5aa1" d="M 113.5,120.5 C 114.552,120.351 115.552,120.517 116.5,121C 115.359,126.75 115.193,132.584 116,138.5C 116.333,135.833 116.667,133.167 117,130.5C 117.771,133.19 118.604,135.856 119.5,138.5C 120.474,136.257 120.808,133.924 120.5,131.5C 123.518,131.335 126.518,131.502 129.5,132C 130.416,132.278 131.082,132.778 131.5,133.5C 128.167,133.5 124.833,133.5 121.5,133.5C 121.5,135.167 121.5,136.833 121.5,138.5C 121.389,139.117 121.056,139.617 120.5,140C 118.5,140.333 116.5,140.667 114.5,141C 125.161,141.5 135.828,141.667 146.5,141.5C 146.5,140.167 146.5,138.833 146.5,137.5C 147.451,138.919 147.784,140.585 147.5,142.5C 146.5,142.5 145.5,142.5 144.5,142.5C 133.779,143.142 123.446,142.475 113.5,140.5C 113.5,133.833 113.5,127.167 113.5,120.5 Z"/></g>
<g><path style="opacity:1" fill="#1361af" d="M 174.5,118.5 C 177.652,117.959 180.152,118.959 182,121.5C 182.717,125.045 182.55,128.545 181.5,132C 182.121,135.186 182.788,138.352 183.5,141.5C 180.554,142.655 177.554,142.821 174.5,142C 175.136,139.606 175.136,137.106 174.5,134.5C 168.5,134.5 162.5,134.5 156.5,134.5C 161.246,132.707 166.413,131.707 172,131.5C 175.104,131.851 174.937,132.351 171.5,133C 174.207,133.328 176.874,132.995 179.5,132C 180.167,129.333 180.833,126.667 181.5,124C 180.874,123.25 180.374,122.416 180,121.5C 179.821,124.553 179.321,127.553 178.5,130.5C 177.293,128.335 175.96,126.335 174.5,124.5C 172.958,123.699 171.292,123.366 169.5,123.5C 165.366,122.515 161.032,122.182 156.5,122.5C 156.198,125.059 156.532,127.393 157.5,129.5C 157.44,130.043 157.107,130.376 156.5,130.5C 155.516,127.572 155.183,124.572 155.5,121.5C 162.874,121.616 170.208,121.116 177.5,120C 176.263,119.768 175.263,119.268 174.5,118.5 Z"/></g>
<g><path style="opacity:1" fill="#f7f8f8" d="M 169.5,123.5 C 171.292,123.366 172.958,123.699 174.5,124.5C 174.421,125.93 174.754,127.264 175.5,128.5C 175.192,129.308 174.692,129.975 174,130.5C 168.593,129.527 163.093,129.193 157.5,129.5C 157.5,127.5 157.5,125.5 157.5,123.5C 161.5,123.5 165.5,123.5 169.5,123.5 Z"/></g>
<g><path style="opacity:1" fill="#899098" d="M 169.5,123.5 C 165.5,123.5 161.5,123.5 157.5,123.5C 157.5,125.5 157.5,127.5 157.5,129.5C 156.532,127.393 156.198,125.059 156.5,122.5C 161.032,122.182 165.366,122.515 169.5,123.5 Z"/></g>
<g><path style="opacity:1" fill="#83add1" d="M 101.5,130.5 C 101.56,129.957 101.893,129.624 102.5,129.5C 103.806,132.98 103.806,136.313 102.5,139.5C 102.81,136.287 102.477,133.287 101.5,130.5 Z"/></g>
<g><path style="opacity:1" fill="#1185e8" d="M 146.5,137.5 C 146.5,138.833 146.5,140.167 146.5,141.5C 135.828,141.667 125.161,141.5 114.5,141C 116.5,140.667 118.5,140.333 120.5,140C 121.056,139.617 121.389,139.117 121.5,138.5C 129.888,138.773 138.221,138.44 146.5,137.5 Z"/></g>
<g><path style="opacity:1" fill="#939fac" d="M 80.5,131.5 C 78.9893,135.252 79.3227,138.919 81.5,142.5C 74.344,143.819 67.344,143.819 60.5,142.5C 62.8333,142.5 65.1667,142.5 67.5,142.5C 68.1667,142.5 68.8333,142.5 69.5,142.5C 72.5184,142.665 75.5184,142.498 78.5,142C 78.0426,141.586 77.7093,141.086 77.5,140.5C 78.2618,136.889 78.7618,133.222 79,129.5C 79.7172,130.044 80.2172,130.711 80.5,131.5 Z"/></g>
<g><path style="opacity:1" fill="#52565a" d="M 32.5,141.5 C 35.2869,142.477 38.2869,142.81 41.5,142.5C 38.3132,143.806 34.9798,143.806 31.5,142.5C 31.6236,141.893 31.9569,141.56 32.5,141.5 Z"/></g>
<g><path style="opacity:1" fill="#89929d" d="M 111.5,121.5 C 110.877,128.255 111.544,134.588 113.5,140.5C 123.446,142.475 133.779,143.142 144.5,142.5C 129.995,143.826 115.328,143.826 100.5,142.5C 100.624,141.893 100.957,141.56 101.5,141.5C 104.64,142.641 107.973,142.808 111.5,142C 110.173,135.068 110.173,128.235 111.5,121.5 Z"/></g>
</svg>
